<?xml version="1.0" encoding="UTF-8" standalone="no"?>
<!DOCTYPE svg PUBLIC "-//W3C//DTD SVG 1.1//EN"
 "http://www.w3.org/Graphics/SVG/1.1/DTD/svg11.dtd">
<!-- Generated by graphviz version 2.40.1 (20161225.0304)
 -->
<!-- Title: %3 Pages: 1 -->
<svg width="876pt" height="231pt"
 viewBox="0.00 0.00 875.83 231.00" xmlns="http://www.w3.org/2000/svg" xmlns:xlink="http://www.w3.org/1999/xlink">
<g id="graph0" class="graph" transform="scale(1 1) rotate(0) translate(4 227)">
<title>%3</title>
<polygon fill="#333333" stroke="transparent" points="-4,4 -4,-227 871.8327,-227 871.8327,4 -4,4"/>
<text text-anchor="middle" x="433.9164" y="-9.2" font-family="Times,serif" font-size="16.00" fill="#ffffff">Network Map</text>
<!-- R4 -->
<g id="node1" class="node">
<title>R4</title>
<polygon fill="#006699" stroke="#006699" points="206.8327,-223 130.8327,-223 130.8327,-150 206.8327,-150 206.8327,-223"/>
<text text-anchor="middle" x="168.8327" y="-182.8" font-family="Helvetica,sans-Serif" font-size="14.00" fill="#ffffff">R4</text>
</g>
<!-- SW2 -->
<g id="node2" class="node">
<title>SW2</title>
<polygon fill="#006699" stroke="#006699" points="828.3327,-223 739.3327,-223 739.3327,-150 828.3327,-150 828.3327,-223"/>
<text text-anchor="middle" x="783.8327" y="-182.8" font-family="Helvetica,sans-Serif" font-size="14.00" fill="#ffffff">SW2</text>
</g>
<!-- R2 -->
<g id="node3" class="node">
<title>R2</title>
<polygon fill="#006699" stroke="#006699" points="759.8327,-99 683.8327,-99 683.8327,-26 759.8327,-26 759.8327,-99"/>
<text text-anchor="middle" x="721.8327" y="-58.8" font-family="Helvetica,sans-Serif" font-size="14.00" fill="#ffffff">R2</text>
</g>
<!-- R2&#45;&#45;SW2 -->
<g id="edge5" class="edge">
<title>R2&#45;&#45;SW2</title>
<path fill="none" stroke="#00ff00" stroke-dasharray="5,2" d="M751.2759,-99.2843C755.1407,-105.0244 758.8038,-111.035 761.8327,-117 767.0471,-127.269 771.3343,-139.0192 774.6946,-149.9001"/>
<text text-anchor="middle" x="817.8327" y="-120.8" font-family="Courier,monospace" font-size="14.00" fill="#ffffff"> &#160;&#160;&#160;&#160;&#160;&#160;&#160;&#160;&#160;&#160;&#160;</text>
<text text-anchor="middle" x="745.6946" y="-138.7001" font-family="Courier,monospace" font-size="14.00" fill="#ffffff">Eth0/11</text>
<text text-anchor="middle" x="726.2759" y="-103.0843" font-family="Courier,monospace" font-size="14.00" fill="#ffffff">Eth0/1</text>
</g>
<!-- SW1 -->
<g id="node8" class="node">
<title>SW1</title>
<polygon fill="#006699" stroke="#006699" points="520.3327,-223 431.3327,-223 431.3327,-150 520.3327,-150 520.3327,-223"/>
<text text-anchor="middle" x="475.8327" y="-182.8" font-family="Helvetica,sans-Serif" font-size="14.00" fill="#ffffff">SW1</text>
</g>
<!-- R2&#45;&#45;SW1 -->
<g id="edge2" class="edge">
<title>R2&#45;&#45;SW1</title>
<path fill="none" stroke="#00ff00" stroke-dasharray="5,2" d="M683.743,-94.2284C667.008,-107.124 646.6774,-121.4408 626.8327,-132 592.7558,-150.1321 551.3538,-164.5968 520.5269,-174.055"/>
<text text-anchor="middle" x="700.8327" y="-120.8" font-family="Courier,monospace" font-size="14.00" fill="#ffffff"> &#160;&#160;&#160;&#160;&#160;&#160;&#160;&#160;&#160;&#160;&#160;</text>
<text text-anchor="middle" x="545.5269" y="-162.855" font-family="Courier,monospace" font-size="14.00" fill="#ffffff">Eth0/2</text>
<text text-anchor="middle" x="658.743" y="-83.0284" font-family="Courier,monospace" font-size="14.00" fill="#ffffff">Eth0/0</text>
</g>
<!-- R1 -->
<g id="node4" class="node">
<title>R1</title>
<polygon fill="#006699" stroke="#006699" points="452.8327,-99 376.8327,-99 376.8327,-26 452.8327,-26 452.8327,-99"/>
<text text-anchor="middle" x="414.8327" y="-58.8" font-family="Helvetica,sans-Serif" font-size="14.00" fill="#ffffff">R1</text>
</g>
<!-- R1&#45;&#45;SW1 -->
<g id="edge1" class="edge">
<title>R1&#45;&#45;SW1</title>
<path fill="none" stroke="#00ff00" stroke-dasharray="5,2" d="M409.9161,-99.0647C409.853,-110.0587 411.2664,-121.8807 415.8327,-132 419.4792,-140.081 424.9647,-147.4852 431.1632,-154.0564"/>
<text text-anchor="middle" x="465.8327" y="-120.8" font-family="Courier,monospace" font-size="14.00" fill="#ffffff"> &#160;&#160;&#160;&#160;&#160;&#160;&#160;&#160;&#160;&#160;&#160;</text>
<text text-anchor="middle" x="406.1632" y="-142.8564" font-family="Courier,monospace" font-size="14.00" fill="#ffffff">Eth0/1</text>
<text text-anchor="middle" x="384.9161" y="-102.8647" font-family="Courier,monospace" font-size="14.00" fill="#ffffff">Eth0/0</text>
</g>
<!-- R5 -->
<g id="node5" class="node">
<title>R5</title>
<polygon fill="#006699" stroke="#006699" points="83.8327,-223 7.8327,-223 7.8327,-150 83.8327,-150 83.8327,-223"/>
<text text-anchor="middle" x="45.8327" y="-182.8" font-family="Helvetica,sans-Serif" font-size="14.00" fill="#ffffff">R5</text>
</g>
<!-- R6 -->
<g id="node6" class="node">
<title>R6</title>
<polygon fill="#006699" stroke="#006699" points="575.8327,-99 499.8327,-99 499.8327,-26 575.8327,-26 575.8327,-99"/>
<text text-anchor="middle" x="537.8327" y="-58.8" font-family="Helvetica,sans-Serif" font-size="14.00" fill="#ffffff">R6</text>
</g>
<!-- R6&#45;&#45;SW1 -->
<g id="edge4" class="edge">
<title>R6&#45;&#45;SW1</title>
<path fill="none" stroke="#00ff00" stroke-dasharray="5,2" d="M528.6946,-99.0999C525.3343,-109.9808 521.0471,-121.731 515.8327,-132 512.8038,-137.965 509.1407,-143.9756 505.2759,-149.7157"/>
<text text-anchor="middle" x="572.8327" y="-120.8" font-family="Courier,monospace" font-size="14.00" fill="#ffffff"> &#160;&#160;&#160;&#160;&#160;&#160;&#160;&#160;&#160;&#160;&#160;</text>
<text text-anchor="middle" x="480.2759" y="-138.5157" font-family="Courier,monospace" font-size="14.00" fill="#ffffff">Eth0/5</text>
<text text-anchor="middle" x="503.6946" y="-102.8999" font-family="Courier,monospace" font-size="14.00" fill="#ffffff">Eth0/1</text>
</g>
<!-- R3 -->
<g id="node7" class="node">
<title>R3</title>
<polygon fill="#006699" stroke="#006699" points="206.8327,-99 130.8327,-99 130.8327,-26 206.8327,-26 206.8327,-99"/>
<text text-anchor="middle" x="168.8327" y="-58.8" font-family="Helvetica,sans-Serif" font-size="14.00" fill="#ffffff">R3</text>
</g>
<!-- R3&#45;&#45;R4 -->
<g id="edge6" class="edge">
<title>R3&#45;&#45;R4</title>
<path fill="none" stroke="#00ff00" stroke-dasharray="5,2" d="M168.8327,-99.0334C168.8327,-115.0358 168.8327,-133.7778 168.8327,-149.7992"/>
<text text-anchor="middle" x="218.8327" y="-120.8" font-family="Courier,monospace" font-size="14.00" fill="#ffffff"> &#160;&#160;&#160;&#160;&#160;&#160;&#160;&#160;&#160;&#160;&#160;</text>
<text text-anchor="middle" x="143.8327" y="-138.5992" font-family="Courier,monospace" font-size="14.00" fill="#ffffff">Eth0/0</text>
<text text-anchor="middle" x="143.8327" y="-102.8334" font-family="Courier,monospace" font-size="14.00" fill="#ffffff">Eth0/1</text>
</g>
<!-- R3&#45;&#45;R5 -->
<g id="edge7" class="edge">
<title>R3&#45;&#45;R5</title>
<path fill="none" stroke="#00ff00" stroke-dasharray="5,2" d="M130.633,-73.9103C108.4122,-82.4102 81.5715,-96.1937 64.8327,-117 57.3055,-126.3564 52.7518,-138.4689 50,-149.9547"/>
<text text-anchor="middle" x="114.8327" y="-120.8" font-family="Courier,monospace" font-size="14.00" fill="#ffffff"> &#160;&#160;&#160;&#160;&#160;&#160;&#160;&#160;&#160;&#160;&#160;</text>
<text text-anchor="middle" x="25" y="-138.7547" font-family="Courier,monospace" font-size="14.00" fill="#ffffff">Eth0/0</text>
<text text-anchor="middle" x="105.633" y="-62.7103" font-family="Courier,monospace" font-size="14.00" fill="#ffffff">Eth0/2</text>
</g>
<!-- R3&#45;&#45;SW1 -->
<g id="edge3" class="edge">
<title>R3&#45;&#45;SW1</title>
<path fill="none" stroke="#00ff00" stroke-dasharray="5,2" d="M207.0567,-83.5605C234.5836,-98.2422 272.8776,-117.6858 307.8327,-132 348.836,-148.7909 397.0765,-163.9906 431.32,-174.0456"/>
<text text-anchor="middle" x="357.8327" y="-120.8" font-family="Courier,monospace" font-size="14.00" fill="#ffffff"> &#160;&#160;&#160;&#160;&#160;&#160;&#160;&#160;&#160;&#160;&#160;</text>
<text text-anchor="middle" x="406.32" y="-162.8456" font-family="Courier,monospace" font-size="14.00" fill="#ffffff">Eth0/3</text>
<text text-anchor="middle" x="232.0567" y="-72.3605" font-family="Courier,monospace" font-size="14.00" fill="#ffffff">Eth0/0</text>
</g>
</g>
</svg>
